<?xml version="1.0" encoding="UTF-8" standalone="no"?>
<!-- Created with Inkscape (http://www.inkscape.org/) -->

<svg
   version="1.1"
   id="svg377"
   width="910.66669"
   height="901.33331"
   viewBox="0 0 910.66669 901.33331"
   sodipodi:docname="logo.svg"
   inkscape:version="1.1.1 (c3084ef, 2021-09-22)"
   xmlns:inkscape="http://www.inkscape.org/namespaces/inkscape"
   xmlns:sodipodi="http://sodipodi.sourceforge.net/DTD/sodipodi-0.dtd"
   xmlns="http://www.w3.org/2000/svg"
   xmlns:svg="http://www.w3.org/2000/svg">
  <defs
     id="defs381" />
  <sodipodi:namedview
     id="namedview379"
     pagecolor="#505050"
     bordercolor="#eeeeee"
     borderopacity="1"
     inkscape:pageshadow="0"
     inkscape:pageopacity="0"
     inkscape:pagecheckerboard="0"
     showgrid="false"
     inkscape:zoom="0.60930932"
     inkscape:cx="450.5101"
     inkscape:cy="532.57023"
     inkscape:window-width="1438"
     inkscape:window-height="847"
     inkscape:window-x="0"
     inkscape:window-y="25"
     inkscape:window-maximized="0"
     inkscape:current-layer="g383" />
  <g
     inkscape:groupmode="layer"
     inkscape:label="Image"
     id="g383">
    <path
       style="fill:#000000;stroke-width:0.666667"
       d="m 29.333334,888.61538 c -4.028022,-1.82267 -7.165762,-4.91674 -9.075127,-8.94874 l -1.578515,-3.33333 V 450.66665 24.999999 l 1.554515,-3.338186 c 1.773278,-3.80796 5.408082,-7.283656 9.518594,-9.101931 C 32.498318,11.34541 41.259113,11.31763 359.12002,11.51552 l 326.54666,0.203298 9.99167,1.505646 c 15.313,2.307522 26.28667,4.592158 37.4582,7.79851 19.95987,5.728729 42.3132,16.261618 61.2168,28.845382 38.7348,25.784982 66.70307,59.760314 85.61441,104.002964 12.12006,28.35452 18.8214,67.1954 16.7966,97.35279 -3.36934,50.18452 -19.9182,93.2489 -50.49087,131.39019 -16.554,20.65218 -40.7124,41.56414 -62.25347,53.8878 -19.59233,11.20878 -36.00827,18.01137 -59,24.44893 -6.6282,1.85585 -23.3102,5.04896 -26.37774,5.04896 -1.2008,0 -1.9556,0.34863 -1.9556,0.90329 0,0.49681 45.04027,90.97693 100.08941,201.0669 74.07447,148.1376 100.1754,200.92593 100.42007,203.09653 0.692,6.13967 -3.15274,13.29587 -8.98527,16.72433 l -3.19087,1.8756 -426.33334,0.15314 -426.333346,0.15313 z M 440.66668,661.66665 V 467.99999 H 349.16614 257.6656 L 160.83296,661.66665 64.000307,855.33331 H 252.33349 440.66668 Z m 410.37721,192.49999 c -0.23767,-0.64166 -43.69474,-87.77546 -96.57134,-193.63063 l -96.1392,-192.46396 -91.5,-0.036 -91.5,-0.036 v 193.66666 193.66666 h 188.07133 c 178.83574,0 188.05008,-0.0573 187.63921,-1.16667 z M 218.62975,468.49999 c 0.0203,-0.275 -37.16308,-0.5 -82.62975,-0.5 H 53.333335 l 0.03692,165.49999 0.03692,165.5 82.592825,-165 c 45.42606,-90.74999 82.60945,-165.22499 82.62975,-165.49999 z m -76.66048,-36.75968 c 29.45091,-4.34877 55.95679,-14.35524 79.8336,-30.13869 37.96606,-25.09696 66.513,-62.83323 79.22261,-104.72458 6.38639,-21.04977 8.50298,-34.94433 8.56266,-56.21038 0.0486,-17.32556 -0.49369,-23.35408 -3.35841,-37.33333 -3.92084,-19.13297 -9.06246,-33.9241 -17.63034,-50.71799 C 265.69006,107.71072 226.51303,73.463291 179.24181,57.018079 161.4222,50.818805 146.91158,47.835289 128.90952,46.669298 123.45928,46.316287 104.225,46.021281 86.166669,46.013729 L 53.333335,45.999999 V 239.71649 433.433 l 40.500001,-0.28258 C 127.335,432.91667 135.65281,432.673 141.96927,431.74031 Z M 440.66668,268.33333 c 0,-90.75 -0.14988,-165 -0.33307,-165 -0.32704,0 -165.00027,329.01271 -165.00027,329.66612 0,0.18363 37.2,0.33387 82.66667,0.33387 h 82.66667 z M 640.55557,432.80994 C 639.92305,431.32022 480.57781,112.91045 478.18615,108.35712 L 475.37227,103 l -0.0195,165.16666 -0.0195,165.16666 h 82.72222 c 45.49723,0 82.62223,-0.23552 82.5,-0.52338 z m 50.77778,-0.82578 c 28.19327,-2.89492 58.2806,-13.96568 83.68274,-30.79138 11.89613,-7.87971 17.81093,-12.69022 28.89606,-23.50112 20.3468,-19.84345 36.89867,-44.9263 45.79814,-69.40305 8.39913,-23.10056 11.5718,-38.54639 12.6574,-61.62195 0.71273,-15.14896 -1.46253,-37.35148 -5.02547,-51.29427 -7.33013,-28.68488 -19.36593,-53.09597 -37.32653,-75.70573 -24.28254,-30.568142 -56.65447,-52.769968 -94.28294,-64.662573 -15.4436,-4.88102 -26.68953,-7.044742 -43.32953,-8.336646 -10.74574,-0.834278 -196.60848,-0.914396 -196.29209,-0.08461 0.64594,1.694141 191.39122,382.735479 192.45655,384.459899 1.4068,2.27712 0.44687,2.20633 12.76567,0.94143 z M 386.66616,132.6677 c 23.46695,-46.932769 42.66718,-85.632766 42.66718,-86.000001 0,-0.442732 -32.34537,-0.6677 -96,-0.6677 -52.8,0 -96,0.235318 -96,0.522928 0,0.28761 0.975,1.088652 2.16667,1.780091 10.33208,5.994975 28.08112,20.652954 40.5,33.446793 12.96923,13.360807 23.03033,26.547429 32.95212,43.188869 11.76338,19.73026 21.23807,43.69351 25.98779,65.72798 1.33701,6.20252 4.37492,24.77217 4.38981,26.83333 0.002,0.275 0.15338,0.5 0.33643,0.5 0.18305,0 19.53305,-38.39953 43,-85.33229 z"
       id="path557" />
  </g>
</svg>
