<?xml version="1.0" encoding="UTF-8"?>
<!-- Generated by Pixelmator Pro 3.5.11 -->
<svg width="1494" height="1031" viewBox="0 0 1494 1031" xmlns="http://www.w3.org/2000/svg">
    <g id="Associer">
        <path id="freecode-logo" fill="#000000" stroke="none" d="M 250.694 1028.612427 C 224.778 1022.424438 187.274002 989.888428 145.688004 937.510376 C 61.27 831.186401 15.431999 711.932373 1.934 563.510376 C -0.664 534.942383 -0.638 462.67041 1.98 436.222412 C 14.322001 311.5224 57.958 204.132385 138.024002 101.408386 C 162.542007 69.950378 203.175995 28.740356 222.638 15.596375 C 250.175995 -3.003662 267.51001 -4.507568 284.144012 10.258362 C 290.928009 16.28241 292.488007 19.084351 293.355988 26.804382 C 294.992004 41.340393 287.541992 52.698364 252.891998 88.486389 C 204.472 138.498413 182.134003 166.338379 157.391998 207.510376 C 101.204002 301.004395 77.160004 399.326416 80.606003 521.510376 C 82.442001 586.60437 89.407997 634.584351 104.767998 687.952393 C 118.603996 736.018433 135.207993 774.772339 160.076004 817.032349 C 185.042007 859.464355 206.024002 886.310425 247.977997 929.510376 C 284.786011 967.4104 293.929993 980.572388 293.929993 995.668335 C 293.929993 1010.684326 283.329987 1024.266357 268.365997 1028.422363 C 260.10199 1030.716431 259.537994 1030.722412 250.694 1028.612427 L 250.694 1028.612427 Z M 1222.302002 1029.18042 C 1214.468018 1027.518433 1200.459961 1012.452393 1198.880005 1003.992432 C 1196.33606 990.358398 1204.446045 978.216431 1242.255981 939.054321 C 1260.862061 919.784424 1283.754028 894.452393 1293.130005 882.762329 C 1361.719971 797.234375 1399.828003 702.066406 1409.995972 590.9104 C 1413.130005 556.644409 1411.51001 468.35437 1407.140015 435.248413 C 1397.984009 365.900391 1381.08606 309.166382 1351.817993 249.510376 C 1323.812012 192.426392 1294.83606 151.938416 1245.901978 101.510376 C 1213.040039 67.646362 1203.352051 55.280396 1200.050049 42.980408 C 1196.812012 30.922363 1199.140015 21.970398 1208.182007 11.69635 C 1220.58606 -2.393677 1234.755981 -3.651611 1256.927979 7.372375 C 1283.77002 20.71637 1318.552002 55.562378 1358.927979 109.558411 C 1440.161987 218.192383 1482.057983 337.702393 1492.128052 489.510376 C 1500.68396 618.494385 1469.394043 749.05835 1404.014038 857.186401 C 1358.884033 931.822388 1290.030029 1008.304321 1253.368042 1024.522461 C 1243.784058 1028.760376 1230.036011 1030.822388 1222.302002 1029.18042 Z M 411.455994 950.530396 C 389.51001 943.876343 376.787994 921.942383 382.079987 899.882324 C 385.35199 886.240356 399.048004 872.214355 412.369995 868.858398 C 425.791992 865.480347 1120.06604 865.480347 1133.488037 868.858398 C 1147.222046 872.316406 1160.713989 886.388428 1163.713989 900.380371 C 1167.647949 918.720337 1159.406006 937.490356 1143.394043 946.6604 L 1134.927979 951.510376 L 775.927979 951.848389 C 578.478027 952.036377 414.466003 951.442383 411.455994 950.530396 Z M 684.927979 781.762329 C 618.257996 757.512329 562.786011 710.254395 534.390015 653.510376 C 518.604004 621.964355 509.441986 583.756348 509.447998 549.510376 C 509.459991 503.210388 527.564026 459.092407 582.721985 370.958374 C 623.804016 305.314392 630.804016 293.352417 642.882019 268.140381 C 658.958008 234.588379 664.257996 214.662415 664.596008 186.510376 C 664.916016 159.606384 660.883972 143.644409 648.494019 122.764404 C 639.695984 107.944397 619.90802 85.636414 611.872009 81.480408 C 598.771973 74.70636 596.057983 65.506409 605.359985 59.412354 C 620.070007 49.7724 660.262024 55.886353 697.185974 73.378357 C 738.968018 93.17041 769.762024 121.588379 789.815979 158.862366 C 805.271973 187.588379 811.502014 209.602417 821.986023 272.510376 C 833.617981 342.316406 845.150024 364.464417 868.468018 361.784424 C 880.825989 360.36438 888.538025 355.676392 893.73999 346.418396 C 902.028015 331.67041 898.476013 311.484375 881.711975 278.078369 C 868.015991 250.786377 868.864014 242.538391 884.927979 246.786377 C 893.25 248.988403 920.25 271.042419 938.94397 290.906372 C 985.713989 340.608398 1008.992004 385.764404 1020.185974 448.510376 C 1026.057983 481.42041 1026.546021 535.990356 1021.223999 564.510376 C 1014.512024 600.488403 1000.906006 634.450439 981.570007 663.492432 C 960.01001 695.876343 915.030029 736.850342 882.330017 753.894409 C 867.562012 761.592407 862.437988 762.05835 855.197998 756.36438 C 846.195984 749.282349 848.096008 744.358398 868 723.218384 C 897.901978 691.454346 913.169983 668.87439 922.026001 643.30835 C 935.692017 603.866333 928.890015 548.876343 906.01001 513.82843 C 896.531982 499.310425 882.642029 486.510376 876.367981 486.510376 C 872.932007 486.510376 873.502014 491.042419 879.872009 514.37439 C 882.10199 522.550415 883.927979 532.542358 883.927979 536.578369 C 883.927979 557.928345 853.794006 573.406372 827.247986 565.688354 C 805.676025 559.416382 796.166016 539.852417 799.023987 507.620422 C 799.906006 497.6604 800.695984 479.558411 800.780029 467.398376 C 800.924011 445.952393 800.718018 444.868408 793.927979 431.480408 C 780.697998 405.388367 750.096008 378.510376 733.617981 378.510376 C 726.513977 378.510376 725.927979 378.938416 725.927979 384.1604 C 725.927979 387.668396 727.900024 391.652405 731.124023 394.6604 C 748.192017 410.592407 751.406006 443.240417 738.73999 472.060425 C 730.911987 489.87439 722.085999 499.964417 691.940002 525.552368 C 652.276001 559.220337 639.495972 575.252319 631.570007 601.27832 C 627.901978 613.318359 627.523987 618.216431 628.55603 640.27832 C 630.288025 677.316406 637.838013 701.868408 655.47998 727.848389 C 669.026001 747.796387 684.888 760.452393 706.427979 768.500366 C 716.788025 772.370361 717.927979 773.370361 717.927979 778.582397 C 717.927979 784.62439 713.333984 788.596436 706.559998 788.4104 C 704.562012 788.35437 694.828003 785.36438 684.927979 781.762329 Z"/>
    </g>
</svg>
