<?xml version="1.0" encoding="UTF-8"?>
<!-- Generated by Pixelmator Pro 3.5.11 -->
<svg width="910" height="901" viewBox="0 0 910 901" xmlns="http://www.w3.org/2000/svg">
    <g id="g383">
        <path id="path557" fill="#89beb1" stroke="none" d="M 29.333334 888.282043 C 25.305311 886.459412 22.167572 883.365356 20.258207 879.333313 L 18.679691 876 L 18.679691 450.333344 L 18.679691 24.666687 L 20.234207 21.328491 C 22.007484 17.520569 25.642288 14.044861 29.752802 12.226563 C 32.498318 11.012085 41.259113 10.984314 359.120026 11.18219 L 685.666687 11.385498 L 695.658325 12.891174 C 710.971375 15.198669 721.945007 17.483337 733.116577 20.689636 C 753.076416 26.418396 775.429749 36.951294 794.333374 49.535034 C 833.068176 75.320007 861.036438 109.295349 879.947754 153.538025 C 892.06781 181.892517 898.769165 220.733398 896.744385 250.890808 C 893.375 301.075317 876.826172 344.139709 846.253479 382.281006 C 829.699463 402.933167 805.541077 423.845123 784 436.168793 C 764.407715 447.377563 747.99176 454.180145 725 460.617706 C 718.371826 462.473572 701.689819 465.666687 698.622253 465.666687 C 697.421509 465.666687 696.666687 466.01532 696.666687 466.569977 C 696.666687 467.066772 741.70697 557.546875 796.756104 667.636841 C 870.830566 815.774475 896.931519 868.562805 897.176147 870.733398 C 897.868164 876.873047 894.023438 884.029297 888.190918 887.457703 L 885 889.333313 L 458.666687 889.48645 L 32.333336 889.639587 Z M 440.666687 661.333313 L 440.666687 467.666687 L 349.166138 467.666687 L 257.665588 467.666687 L 160.832962 661.333313 L 64.000305 855 L 252.333496 855 L 440.666687 855 Z M 851.043884 853.833313 C 850.806213 853.19165 807.349121 766.057861 754.472534 660.202698 L 658.333374 467.738739 L 566.833374 467.702728 L 475.333344 467.666748 L 475.333344 661.333374 L 475.333344 855.000061 L 663.404663 855.000061 C 842.240417 855.000061 851.454773 854.942749 851.043884 853.833374 Z M 218.629745 468.166687 C 218.650055 467.891663 181.466675 467.666687 136 467.666687 L 53.333336 467.666687 L 53.370255 633.166687 L 53.407173 798.666687 L 136 633.666687 C 181.426056 542.916687 218.609451 468.441681 218.629745 468.166687 Z M 141.969269 431.406982 C 171.420181 427.058228 197.926056 417.051758 221.802872 401.268311 C 259.768921 376.171387 288.315857 338.43512 301.025482 296.543762 C 307.411865 275.493958 309.528473 261.599426 309.588135 240.333374 C 309.636749 223.007813 309.094452 216.979248 306.229736 203 C 302.308899 183.867065 297.167267 169.075928 288.599396 152.282043 C 265.690063 107.37738 226.513031 73.130005 179.241806 56.684753 C 161.422195 50.485474 146.911575 47.501953 128.909515 46.335999 C 123.459282 45.982971 104.224998 45.687988 86.166672 45.68042 L 53.333336 45.666687 L 53.333336 239.383179 L 53.333336 433.099701 L 93.833336 432.817108 C 127.334999 432.583344 135.652817 432.339691 141.969269 431.406982 Z M 440.666687 268.000061 C 440.666687 177.25 440.516815 103 440.333618 103 C 440.006561 103 275.333344 432.012726 275.333344 432.666138 C 275.333344 432.849762 312.533325 433 358 433 L 440.666687 433 Z M 640.555542 432.476624 C 639.923035 430.986908 480.57782 112.577148 478.186157 108.023804 L 475.372284 102.666687 L 475.352783 267.833374 L 475.333282 433 L 558.055481 433 C 603.552734 433 640.677734 432.764496 640.555481 432.476624 Z M 691.333374 431.650848 C 719.526611 428.75592 749.613953 417.685181 775.016113 400.859467 C 786.912231 392.979767 792.827026 388.16925 803.91217 377.358337 C 824.258972 357.514893 840.810791 332.432068 849.710266 307.955322 C 858.109436 284.854736 861.282104 269.408936 862.367676 246.333374 C 863.080444 231.184387 860.905151 208.981873 857.342224 195.039063 C 850.012085 166.354187 837.976318 141.943115 820.015686 119.333374 C 795.733154 88.765198 763.361206 66.563354 725.732727 54.670776 C 710.289124 49.789734 699.043213 47.626038 682.403198 46.334106 C 671.657471 45.499878 485.794739 45.419739 486.111145 46.249512 C 486.75708 47.943665 677.50238 428.984985 678.567688 430.709412 C 679.974487 432.986542 679.014526 432.915741 691.333374 431.650848 Z M 386.666168 132.334412 C 410.133118 85.401611 429.333344 46.701599 429.333344 46.334412 C 429.333344 45.891663 396.987976 45.666687 333.333344 45.666687 C 280.533325 45.666687 237.333344 45.901978 237.333344 46.189636 C 237.333344 46.477234 238.308334 47.278259 239.500015 47.969727 C 249.832092 53.964661 267.581116 68.622681 280 81.416504 C 292.969238 94.777283 303.030334 107.963928 312.952118 124.605347 C 324.715515 144.335632 334.190186 168.298889 338.939911 190.333374 C 340.276917 196.535889 343.31485 215.10553 343.329742 217.166687 C 343.331726 217.441711 343.483124 217.666687 343.666168 217.666687 C 343.849213 217.666687 363.199219 179.267151 386.666168 132.334412 Z"/>
    </g>
</svg>
